<?xml version="1.0" encoding="utf-8"?>
<!-- Generator: Adobe Illustrator 14.0.0, SVG Export Plug-In . SVG Version: 6.00 Build 43363)  -->
<!DOCTYPE svg PUBLIC "-//W3C//DTD SVG 1.1//EN" "http://www.w3.org/Graphics/SVG/1.1/DTD/svg11.dtd">
<svg version="1.1" id="Layer_1" xmlns="http://www.w3.org/2000/svg" xmlns:xlink="http://www.w3.org/1999/xlink" x="0px" y="0px"
	 width="612px" height="792px" viewBox="0 0 612 792" enable-background="new 0 0 612 792" xml:space="preserve">
<g>
	<polygon fill-rule="evenodd" clip-rule="evenodd" fill="#FFFFFF" points="209,300 401.756,300 401.756,492.756 209,492.756 
		209,300 	"/>
	<polygon fill-rule="evenodd" clip-rule="evenodd" points="226.918,473.766 226.918,337.402 277.995,337.402 277.995,350 
		332.761,350 332.761,337.402 383.838,337.402 383.838,473.766 226.918,473.766 	"/>
	<path fill-rule="evenodd" clip-rule="evenodd" d="M285.69,320.219c4.164,0,7.906,3.374,7.906,7.696c0,4.27-3.742,7.643-7.906,7.643
		c-4.217,0-7.959-3.374-7.959-7.643C277.731,323.592,281.474,320.219,285.69,320.219L285.69,320.219z"/>
	<path fill-rule="evenodd" clip-rule="evenodd" d="M305.773,313.524c4.059,0,7.59,3.215,7.59,7.327s-3.531,7.327-7.59,7.327
		c-4.006,0-7.538-3.215-7.538-7.327S301.767,313.524,305.773,313.524L305.773,313.524z"/>
	<path fill-rule="evenodd" clip-rule="evenodd" d="M326.436,320.219c4.111,0,7.644,3.426,7.644,7.538c0,4.164-3.532,7.59-7.644,7.59
		s-7.643-3.426-7.643-7.59C318.793,323.645,322.324,320.219,326.436,320.219L326.436,320.219z"/>
	<path fill-rule="evenodd" clip-rule="evenodd" fill="#FFFFFF" d="M291.594,354.955c-11.543,0.263-22.823,1.897-33.208,7.327
		c-18.712,9.857-27.41,27.673-27.41,48.441c0,34.209,27.146,55.135,59.774,55.135h52.395c20.662,0,37.108-12.123,37.108-33.945
		c0-9.961-4.06-18.605-12.177-24.352c8.276-5.43,11.386-14.074,11.386-23.773c0-18.027-13.389-28.833-30.678-28.833h-45.437v60.354
		h14.917v-45.911h28.042c10.121,0,18.449,3.9,18.449,15.18c0,11.491-7.327,15.973-17.922,15.973h-4.744v14.758h6.062
		c11.069,0,18.133,6.432,18.133,17.764c0,13.652-11.175,19.24-23.403,19.24h-50.55c-24.774,0-46.596-13.705-46.596-40.746
		c0-17.079,7.59-31.574,23.614-38.69c7.116-3.163,14.601-3.584,22.244-3.479V354.955L291.594,354.955z"/>
</g>
</svg>
